<svg width="32" height="30" viewBox="0 0 32 30" fill="none" xmlns="http://www.w3.org/2000/svg">
<path d="M14.5006 2.41663C13.8844 2.41663 13.2669 2.46254 12.6652 2.55438C12.1855 2.62808 11.8508 3.07396 11.9305 3.55608C12.0042 4.03579 12.4525 4.36446 12.931 4.29196C13.4445 4.21342 13.9726 4.17354 14.5006 4.17354C20.1943 4.17354 24.8258 8.80629 24.8258 14.5C24.8258 20.1936 20.1943 24.8264 14.5006 24.8264C8.80576 24.8264 4.17421 20.1936 4.17421 14.5C4.17421 11.2701 5.64234 8.2855 8.20521 6.31471C8.58826 6.01625 8.66196 5.46525 8.36471 5.081C8.06988 4.69796 7.51646 4.62546 7.13221 4.9215C4.13676 7.22942 2.4173 10.7203 2.4173 14.5C2.4173 21.1627 7.83788 26.5833 14.5006 26.5833C21.1634 26.5833 26.584 21.1627 26.584 14.5C26.584 7.83721 21.1634 2.41663 14.5006 2.41663" fill="white"/>
<g filter="url(#filter0_d)">
<path d="M23.711 3.05423L14.2557 15.2899L10.1224 9.93951C9.46524 9.08937 8.39995 9.08937 7.74284 9.93951C7.08572 10.7897 7.08572 12.1679 7.74284 13.018L13.0648 19.9062C13.381 20.3124 13.8071 20.5416 14.2557 20.5416C14.6997 20.5416 15.1281 20.3124 15.4443 19.9062L26.0905 6.13273C26.7476 5.28259 26.7476 3.90437 26.0905 3.05423C25.4334 2.20409 24.3681 2.20409 23.711 3.05423" fill="white"/>
<path d="M23.711 3.05423L14.2557 15.2899L10.1224 9.93951C9.46524 9.08937 8.39995 9.08937 7.74284 9.93951C7.08572 10.7897 7.08572 12.1679 7.74284 13.018L13.0648 19.9062C13.381 20.3124 13.8071 20.5416 14.2557 20.5416C14.6997 20.5416 15.1281 20.3124 15.4443 19.9062L26.0905 6.13273C26.7476 5.28259 26.7476 3.90437 26.0905 3.05423C25.4334 2.20409 24.3681 2.20409 23.711 3.05423" stroke="black"/>
</g>
<defs>
<filter id="filter0_d" x="2.75" y="1.91663" width="28.3333" height="27.125" filterUnits="userSpaceOnUse" color-interpolation-filters="sRGB">
<feFlood flood-opacity="0" result="BackgroundImageFix"/>
<feColorMatrix in="SourceAlpha" type="matrix" values="0 0 0 0 0 0 0 0 0 0 0 0 0 0 0 0 0 0 127 0" result="hardAlpha"/>
<feOffset dy="4"/>
<feGaussianBlur stdDeviation="2"/>
<feComposite in2="hardAlpha" operator="out"/>
<feColorMatrix type="matrix" values="0 0 0 0 0 0 0 0 0 0 0 0 0 0 0 0 0 0 0.25 0"/>
<feBlend mode="normal" in2="BackgroundImageFix" result="effect1_dropShadow"/>
<feBlend mode="normal" in="SourceGraphic" in2="effect1_dropShadow" result="shape"/>
</filter>
</defs>
</svg>
