<svg width="50" height="50" viewBox="0 0 50 50" fill="none" xmlns="http://www.w3.org/2000/svg">
<g filter="url(#filter0_b_1033_140)">
<path d="M25 8.33341C15.7953 8.33341 8.33333 15.7953 8.33333 25.0001C8.33333 34.2048 15.7953 41.6667 25 41.6667C34.2047 41.6667 41.6667 34.2048 41.6667 25.0001C41.6667 15.7953 34.2047 8.33341 25 8.33341ZM4.16667 25.0001C4.16667 13.4941 13.4941 4.16675 25 4.16675C36.5059 4.16675 45.8333 13.4941 45.8333 25.0001C45.8333 36.506 36.5059 45.8334 25 45.8334C13.4941 45.8334 4.16667 36.506 4.16667 25.0001Z" fill="white"/>
<path d="M25 29.1667C23.8494 29.1667 22.9167 28.234 22.9167 27.0834V25.0001C22.9167 23.8495 23.8494 22.9167 25 22.9167C26.1506 22.9167 27.0833 23.8495 27.0833 25.0001V27.0834C27.0833 28.234 26.1506 29.1667 25 29.1667Z" fill="white"/>
<path d="M21.875 34.3751C21.875 32.6492 23.2741 31.2501 25 31.2501C26.7259 31.2501 28.125 32.6492 28.125 34.3751C28.125 36.101 26.7259 37.5001 25 37.5001C23.2741 37.5001 21.875 36.101 21.875 34.3751Z" fill="white"/>
<path d="M25.8124 16.2738C23.8185 16.1788 22.1467 17.2926 21.8467 19.0926C21.6575 20.2275 20.5841 20.9942 19.4492 20.8051C18.3142 20.6159 17.5475 19.5425 17.7367 18.4076C18.4783 13.9576 22.5356 11.9463 26.0106 12.1118C27.7906 12.1966 29.6199 12.8355 31.0285 14.1517C32.4721 15.5006 33.3333 17.4329 33.3333 19.7917C33.3333 22.482 32.2748 24.477 30.4525 25.6919C28.7793 26.8073 26.7282 27.0834 25 27.0834C23.8494 27.0834 22.9167 26.1507 22.9167 25.0001C22.9167 23.8495 23.8494 22.9167 25 22.9167C26.3968 22.9167 27.4707 22.672 28.1413 22.225C28.6627 21.8774 29.1667 21.2682 29.1667 19.7917C29.1667 18.5047 28.7258 17.7026 28.1837 17.1961C27.6067 16.6569 26.7667 16.3192 25.8124 16.2738Z" fill="white"/>
</g>
<defs>
<filter id="filter0_b_1033_140" x="-4" y="-4" width="58" height="58" filterUnits="userSpaceOnUse" color-interpolation-filters="sRGB">
<feFlood flood-opacity="0" result="BackgroundImageFix"/>
<feGaussianBlur in="BackgroundImageFix" stdDeviation="2"/>
<feComposite in2="SourceAlpha" operator="in" result="effect1_backgroundBlur_1033_140"/>
<feBlend mode="normal" in="SourceGraphic" in2="effect1_backgroundBlur_1033_140" result="shape"/>
</filter>
</defs>
</svg>
