<svg width="29" height="29" viewBox="0 0 29 29" fill="none" xmlns="http://www.w3.org/2000/svg">
<path fill-rule="evenodd" clip-rule="evenodd" d="M10.9308 6.64223H24.5123C24.9884 6.64223 25.375 7.03735 25.375 7.5255C25.375 8.01487 24.9884 8.40999 24.5123 8.40999H4.48651C4.01038 8.40999 3.625 8.01487 3.625 7.5255C3.625 7.03735 4.01038 6.64223 4.48651 6.64223H8.34624C8.86009 6.64223 9.30675 6.26644 9.40693 5.7517L9.69449 4.27755C9.98559 3.15865 10.9284 2.41675 12.0009 2.41675H16.9991C18.0716 2.41675 19.0144 3.15865 19.2925 4.22197C19.4163 4.69442 19.1429 5.17896 18.6832 5.30583C18.2248 5.4327 17.751 5.15237 17.6273 4.67992C17.5507 4.38872 17.2926 4.18572 16.9991 4.18572H12.0009C11.7074 4.18572 11.4493 4.38872 11.3727 4.67992L11.0981 6.09728C11.0604 6.28819 11.0015 6.46702 10.9308 6.64223ZM9.85359 24.767C8.74576 24.7428 8.11877 24.1266 7.99031 22.934C7.62025 19.5229 6.98619 11.4453 6.9803 11.3643C6.94259 10.8774 6.52656 10.5306 6.05161 10.5524C5.57666 10.5922 5.2231 11.0188 5.26199 11.5045C5.26788 11.5867 5.90311 19.692 6.27553 23.1309C6.49828 25.1887 7.85478 26.4924 9.81823 26.5347H9.83591C10.3038 26.5347 10.688 26.1517 10.6986 25.6696C10.708 25.1814 10.3297 24.7766 9.85359 24.767ZM22.9482 10.5527C22.4791 10.5273 22.0572 10.8765 22.0195 11.3635C22.0136 11.4444 21.3748 19.5438 21.0083 22.9283C20.8775 24.1463 20.2422 24.7492 19.0649 24.7722L18.5965 24.7806C17.1018 24.8074 16.406 24.82 14.7361 24.8145H14.7337C14.2576 24.8145 13.8722 25.2072 13.871 25.6941C13.8687 26.1835 14.254 26.5798 14.7302 26.5822C15.0248 26.5834 15.3183 26.5834 15.6129 26.5834C16.8444 26.5834 17.3363 26.5736 18.2598 26.5551L18.26 26.555C18.5021 26.5502 18.774 26.5447 19.0967 26.5387C21.1403 26.5013 22.4968 25.2241 22.7231 23.1216C23.0919 19.7129 23.7319 11.587 23.7378 11.5061C23.7767 11.0191 23.4231 10.5926 22.9482 10.5527Z" fill="white"/>
</svg>
