<svg width="40" height="20" viewBox="0 0 40 20" fill="none" xmlns="http://www.w3.org/2000/svg">
<path fill-rule="evenodd" clip-rule="evenodd" d="M14.2463 9.8093C14.7497 9.56053 15.5613 9.56136 16.0613 9.81096L18.7163 11.1378V2.72177C18.7163 2.36934 19.2913 2.08325 19.9996 2.08325C20.7079 2.08325 21.2846 2.36934 21.2846 2.72177V12.6843C21.2846 12.943 20.9713 13.176 20.4896 13.2747C20.0096 13.3734 19.4563 13.3178 19.0896 13.1354L14.243 10.7123C13.9947 10.588 13.8697 10.4246 13.8697 10.2612C13.8697 10.0979 13.9947 9.93369 14.2463 9.8093ZM22.7337 11.3258C22.4787 11.2014 22.352 11.0372 22.352 10.8722C22.352 10.7105 22.4754 10.548 22.7237 10.4228L23.9354 9.81244C24.4337 9.56201 25.2453 9.55952 25.7503 9.80747C26.2553 10.0546 26.2587 10.4584 25.7603 10.7105L24.547 11.3217C24.0504 11.5721 23.237 11.5746 22.7337 11.3258ZM12.0283 17.2491C12.0283 16.8809 11.4533 16.5821 10.745 16.5821C8.07333 16.5821 5.90002 15.4524 5.90002 14.0638V9.84147C5.90002 8.45887 8.06666 7.3327 10.7283 7.3327H12.2966C13.0049 7.3327 13.5799 7.03383 13.5799 6.66566C13.5799 6.29748 13.0049 5.99861 12.2966 5.99861H10.7283C6.65001 5.99861 3.33337 7.72253 3.33337 9.84147V14.0638C3.33337 16.1879 6.65834 17.9161 10.745 17.9161C11.4533 17.9161 12.0283 17.6173 12.0283 17.2491ZM36.6667 9.85056V14.0729C36.6667 16.1918 33.35 17.9166 29.2718 17.9166H16.5819C15.8736 17.9166 15.3002 17.6168 15.3002 17.2495C15.3002 16.8805 15.8736 16.5816 16.5819 16.5816H29.2718C31.9334 16.5816 34.1 15.4563 34.1 14.0729V9.85056C34.1 8.4619 31.9267 7.33226 29.2551 7.33226H27.7034C26.9951 7.33226 26.4218 7.03426 26.4218 6.66522C26.4218 6.29705 26.9951 5.99818 27.7034 5.99818H29.2551C33.3417 5.99818 36.6667 7.72642 36.6667 9.85056Z" fill="#200E32"/>
</svg>
