<svg width="150" height="150" viewBox="0 0 150 150" fill="none" xmlns="http://www.w3.org/2000/svg">
<path fill-rule="evenodd" clip-rule="evenodd" d="M75 15C41.8629 15 15 41.8629 15 75C15 108.137 41.8629 135 75 135C108.137 135 135 108.137 135 75C135 41.8629 108.137 15 75 15ZM0 75C0 33.5786 33.5786 0 75 0C116.421 0 150 33.5786 150 75C150 116.421 116.421 150 75 150C33.5786 150 0 116.421 0 75Z" fill="white"/>
<path fill-rule="evenodd" clip-rule="evenodd" d="M75 90C70.8579 90 67.5 86.6421 67.5 82.5V75C67.5 70.8579 70.8579 67.5 75 67.5C79.1421 67.5 82.5 70.8579 82.5 75V82.5C82.5 86.6421 79.1421 90 75 90Z" fill="white"/>
<path d="M63.75 108.75C63.75 102.537 68.7868 97.5 75 97.5C81.2132 97.5 86.25 102.537 86.25 108.75C86.25 114.963 81.2132 120 75 120C68.7868 120 63.75 114.963 63.75 108.75Z" fill="white"/>
<path fill-rule="evenodd" clip-rule="evenodd" d="M77.9245 43.5853C70.7468 43.2435 64.728 47.253 63.648 53.733C62.967 57.8188 59.1028 60.5789 55.017 59.898C50.9312 59.217 48.1711 55.3528 48.852 51.267C51.522 35.247 66.1282 28.0066 78.638 28.6023C85.046 28.9074 91.6316 31.2074 96.7026 35.9459C101.9 40.802 105 47.7582 105 56.25C105 65.9348 101.189 73.1169 94.629 77.4904C88.6054 81.5061 81.2215 82.5 75 82.5C70.8579 82.5 67.5 79.1421 67.5 75C67.5 70.8579 70.8579 67.5 75 67.5C80.0285 67.5 83.8946 66.6189 86.3085 65.0096C88.1857 63.7582 90 61.5652 90 56.25C90 51.6168 88.4129 48.7292 86.4614 46.9057C84.384 44.9645 81.3602 43.7489 77.9245 43.5853Z" fill="white"/>
</svg>
