<svg width="150" height="150" viewBox="0 0 150 150" fill="none" xmlns="http://www.w3.org/2000/svg">
<path fill-rule="evenodd" clip-rule="evenodd" d="M75.0268 12.5C56.6892 12.5 41.8236 27.429 41.8236 45.8448C41.8236 64.2607 56.6892 79.1897 75.0268 79.1897C93.3645 79.1897 108.23 64.2607 108.23 45.8448C108.23 27.429 93.3645 12.5 75.0268 12.5ZM75.0268 21.5479C88.3887 21.5479 99.2206 32.426 99.2206 45.8448C99.2206 59.2636 88.3887 70.1417 75.0268 70.1417C61.665 70.1417 50.8331 59.2636 50.8331 45.8448C50.8331 32.426 61.665 21.5479 75.0268 21.5479ZM61.4378 92.6305C56.5771 92.968 51.6638 93.6618 46.8175 94.7004C37.4636 96.6272 29.9803 100.477 26.7952 106.874C25.5939 109.376 24.9899 112.055 25.0001 114.767C24.9965 117.459 25.5956 120.142 26.7539 122.595C29.8121 128.919 36.4238 132.498 45.3515 134.482L46.9508 134.815C51.6655 135.879 56.5803 136.595 61.5279 136.932C61.9493 137.055 62.9536 137.17 64.0498 137.226L64.9514 137.26C65.415 137.27 65.9411 137.273 66.725 137.273C73.8365 137.664 81.2089 137.55 88.547 136.926C92.4575 136.658 96.3943 136.147 100.298 135.397L103.219 134.791C112.86 132.889 120.079 129.272 123.241 122.603C125.586 117.651 125.586 111.904 123.242 106.955C120.088 100.302 112.961 96.7149 103.146 94.6931C99.2954 93.871 95.3825 93.2628 91.4417 92.8743L88.5606 92.6305C79.5371 91.8345 70.4614 91.8345 61.4378 92.6305ZM87.7724 101.644L87.8516 101.65C92.3744 101.968 96.8695 102.603 101.304 103.55C108.594 105.052 113.542 107.542 115.107 110.842C116.285 113.331 116.285 116.224 115.106 118.715C113.643 121.799 109.2 124.182 102.778 125.638L101.372 125.936C96.85 126.945 92.3697 127.595 87.8598 127.904C80.8622 128.5 73.906 128.607 66.9674 128.232L64.5074 128.19C63.8245 128.155 63.2489 128.089 62.7156 127.982C58.4921 127.663 54.6918 127.159 51.0018 126.427L48.7985 125.961C41.4858 124.527 36.4948 122.027 34.8766 118.681C34.3104 117.481 34.0079 116.127 34.0097 114.756C34.0046 113.393 34.3031 112.069 34.8825 110.862C36.4559 107.703 41.7451 104.982 48.6629 103.556C53.1297 102.599 57.6227 101.965 62.1435 101.65C70.7253 100.894 79.2734 100.894 87.7724 101.644Z" fill="white"/>
</svg>
