<svg width="40" height="40" viewBox="0 0 40 40" fill="none" xmlns="http://www.w3.org/2000/svg">
<path fill-rule="evenodd" clip-rule="evenodd" d="M24.5607 4.60327H13.474C10.0423 4.60327 7.08398 7.38494 7.08398 10.8183V28.7133C7.08398 32.3399 9.84732 35.1916 13.474 35.1916H26.7873C30.2206 35.1916 33.004 32.1466 33.004 28.7133V13.3966L24.5607 4.60327Z" stroke="#200E32" stroke-width="1.5" stroke-linecap="round" stroke-linejoin="round"/>
<path d="M24.1228 4.58374V9.43207C24.1228 11.7987 26.0378 13.7187 28.4045 13.7237C30.5978 13.7287 32.8428 13.7304 32.9945 13.7204" stroke="#200E32" stroke-width="1.5" stroke-linecap="round" stroke-linejoin="round"/>
<path opacity="0.4" fill-rule="evenodd" clip-rule="evenodd" d="M20.1511 15.7346C20.1511 15.3204 19.8154 14.9846 19.4011 14.9846C18.9869 14.9846 18.6511 15.3204 18.6511 15.7346V24.8745L15.202 21.4095C14.9097 21.116 14.4349 21.1149 14.1413 21.4071C13.8477 21.6993 13.8466 22.1742 14.1389 22.4678L18.8689 27.2194C19.0096 27.3608 19.2009 27.4403 19.4003 27.4403C19.5913 27.4403 19.7748 27.3675 19.9136 27.2372C19.9218 27.2296 19.9298 27.2217 19.9377 27.2137L24.6635 22.4678C24.9558 22.1743 24.9548 21.6995 24.6613 21.4072C24.3678 21.1149 23.8929 21.1159 23.6006 21.4094L20.1511 24.8735V15.7346Z" fill="#200E32"/>
</svg>
