<svg width="240" height="240" viewBox="0 0 240 240" fill="none" xmlns="http://www.w3.org/2000/svg">
<path fill-rule="evenodd" clip-rule="evenodd" d="M220 103.069C220 107.006 216.832 110.198 212.923 110.198L212.835 110.02C210.958 110.02 209.158 109.269 207.831 107.932C206.504 106.595 205.759 104.782 205.759 102.891V88.4554C205.519 64.1955 186.055 44.5879 161.973 44.3465H78.0274C53.9451 44.5879 34.4811 64.1955 34.2415 88.4554V151.545C34.4811 175.805 53.9451 195.412 78.0274 195.653H161.973C186.055 195.412 205.519 175.805 205.759 151.545C206.163 147.891 209.23 145.127 212.879 145.127C216.529 145.127 219.595 147.891 220 151.545C219.903 183.788 193.98 209.902 161.973 210H78.0274C46 209.951 20.0487 183.808 20 151.545V88.4554C20 56.1714 45.9798 30 78.0274 30H161.973C193.98 30.0979 219.903 56.212 220 88.4554V103.069ZM127.387 118.574L168.519 85.4259H168.608C171.67 82.9732 176.12 83.4493 178.603 86.4952C179.786 87.9802 180.33 89.8801 180.114 91.7716C179.898 93.6631 178.94 95.3889 177.453 96.5645L136.321 129.802C125.862 138.281 110.955 138.281 100.496 129.802L59.2755 96.5645C56.2519 94.063 55.7794 89.5806 58.2141 86.4952C59.378 85.0165 61.0825 84.0705 62.9452 83.8694C64.8079 83.6684 66.6727 84.2291 68.1212 85.4259L109.696 118.574C114.889 122.679 122.194 122.679 127.387 118.574Z" fill="white"/>
</svg>
